<?xml version="1.0" standalone="no"?>
  <!DOCTYPE svg PUBLIC "-//W3C//DTD SVG 1.1//EN" "http://www.w3.org/Graphics/SVG/1.1/DTD/svg11.dtd" >
  <svg>
  <metadata>
  Created by font-carrier
  </metadata>
  <defs>
  <font id="HelveticaNeue-Thin" horiz-adv-x="1074" vert-adv-y="1074" >
    <font-face
      
      font-family="Helvetica Neue"
      
      font-weight="400"
      
      font-stretch="normal"
      
      units-per-em="1000"
      
      ascent="927"
      
      descent="-211"
      
    />
      <missing-glyph />

      

      
      <glyph glyph-name="uni21" unicode="&#x21;" d="M106 714L106 473L118 183L142 183L154 473L154 714ZM155 0L155 103L104 103L104 0Z"  horiz-adv-x="259" vert-adv-y="1000"  />

      
      <glyph glyph-name="uni22" unicode="&#x22;" d="M80 485L118 485L118 714L80 714ZM197 485L235 485L235 714L197 714Z"  horiz-adv-x="315" vert-adv-y="1000"  />

      
      <glyph glyph-name="uni23" unicode="&#x23;" d="M414 690L383 470L214 470L245 690L212 690L181 470L58 470L58 437L176 437L152 264L30 264L30 231L147 231L115 0L148 0L180 231L349 231L317 0L350 0L382 231L498 231L498 264L387 264L411 437L526 437L526 470L416 470L447 690ZM209 437L378 437L354 264L185 264Z"  horiz-adv-x="556" vert-adv-y="1000"  />

      
      <glyph glyph-name="uni24" unicode="&#x24;" d="M290 347L351 332C455 306 501 259 501 183C501 68 404 21 290 21ZM258 393L217 402C136 420 72 447 72 541C72 624 123 688 258 693ZM258-105L290-105L290-17C414-15 539 36 539 183C539 265 500 333 368 365L290 384L290 694C405 691 476 642 484 511L522 511C517 663 428 728 290 731L290 780L258 780L258 731C47 724 34 585 34 541C34 418 126 385 211 365L258 354L258 21C120 29 50 110 50 235L12 235C12 63 111-4 258-17Z"  horiz-adv-x="556" vert-adv-y="1000"  />

      
      <glyph glyph-name="uni25" unicode="&#x25;" d="M138-24L178-24L643 714L603 714ZM572-12C673-12 738 70 738 165C738 267 678 344 573 344C469 344 406 264 406 165C406 68 471-12 572-12ZM571 21C493 21 444 92 444 165C444 242 489 311 572 311C656 311 700 243 700 165C700 92 651 21 571 21ZM206 346C307 346 372 428 372 523C372 625 312 702 207 702C103 702 40 622 40 523C40 426 105 346 206 346ZM205 379C127 379 78 450 78 523C78 600 123 669 206 669C290 669 334 601 334 523C334 450 285 379 205 379Z"  horiz-adv-x="778" vert-adv-y="1000"  />

      
      <glyph glyph-name="uni26" unicode="&#x26;" d="M262 412C230 460 170 510 170 579C170 633 227 669 282 669C337 669 394 633 394 579C394 497 320 450 262 412ZM433 137C434 131 375 21 255 21C168 21 81 76 81 170C81 271 175 318 249 366ZM545 0L596 0L480 143C500 189 513 242 516 294L478 294C478 253 468 212 454 175L284 384C354 435 432 477 432 579C432 659 360 702 282 702C208 702 132 653 132 579C132 504 185 449 229 394C147 342 43 287 43 170C43 49 136-12 255-12C341-12 414 33 458 106Z"  horiz-adv-x="593" vert-adv-y="1000"  />

      
      <glyph glyph-name="uni2019" unicode="&#x2019;" d="M125 714L74 714L74 611L95 611C95 584 90 531 61 518L61 485C110 503 125 558 125 611Z"  horiz-adv-x="204" vert-adv-y="1000"  />

      
      <glyph glyph-name="uni28" unicode="&#x28;" d="M228-184C145-48 103 108 103 266C103 429 148 590 231 731L196 731C114 592 65 428 65 266C65 108 113-51 194-184Z"  horiz-adv-x="241" vert-adv-y="1000"  />

      
      <glyph glyph-name="uni29" unicode="&#x29;" d="M13 731C96 595 138 439 138 281C138 118 93-43 10-184L45-184C127-45 176 119 176 281C176 439 128 598 47 731Z"  horiz-adv-x="241" vert-adv-y="1000"  />

      
      <glyph glyph-name="uni2a" unicode="&#x2a;" d="M161 714L161 584L38 625L29 597L153 556L72 454L96 434L176 540L253 434L275 454L199 556L322 597L312 625L190 584L190 714Z"  horiz-adv-x="352" vert-adv-y="1000"  />

      
      <glyph glyph-name="uni2b" unicode="&#x2b;" d="M281 271L48 271L48 233L281 233L281 0L319 0L319 233L552 233L552 271L319 271L319 504L281 504Z"  horiz-adv-x="600" vert-adv-y="1000"  />

      
      <glyph glyph-name="uni2c" unicode="&#x2c;" d="M100-126C149-108 164-53 164 0L164 103L113 103L113 0L134 0C134-27 129-80 100-93Z"  horiz-adv-x="278" vert-adv-y="1000"  />

      
      <glyph glyph-name="uni2d" unicode="&#x2d;" d="M283 253L283 291L69 291L69 253Z"  horiz-adv-x="352" vert-adv-y="1000"  />

      
      <glyph glyph-name="uni2e" unicode="&#x2e;" d="M164 0L164 103L113 103L113 0Z"  horiz-adv-x="278" vert-adv-y="1000"  />

      
      <glyph glyph-name="uni2f" unicode="&#x2f;" d="M28-17L346 731L305 731L-13-17Z"  horiz-adv-x="333" vert-adv-y="1000"  />

      
      <glyph glyph-name="uni30" unicode="&#x30;" d="M278-12C477-12 528 179 528 345C528 511 477 702 278 702C79 702 28 511 28 345C28 179 79-12 278-12ZM278 21C105 21 66 206 66 345C66 484 105 669 278 669C451 669 490 484 490 345C490 206 451 21 278 21Z"  horiz-adv-x="556" vert-adv-y="1000"  />

      
      <glyph glyph-name="uni31" unicode="&#x31;" d="M331 690L297 690C256 620 188 573 108 561L108 528C177 535 244 564 293 616L293 0L331 0Z"  horiz-adv-x="556" vert-adv-y="1000"  />

      
      <glyph glyph-name="uni32" unicode="&#x32;" d="M94 38C101 123 202 184 301 250C400 316 495 392 495 513C495 640 398 702 281 702C146 702 71 622 63 457L101 457C101 576 161 669 287 669C377 669 457 608 457 514C457 398 357 334 257 267C156 200 54 129 46 0L506 0L506 38Z"  horiz-adv-x="556" vert-adv-y="1000"  />

      
      <glyph glyph-name="uni33" unicode="&#x33;" d="M36 228C29 74 123-12 275-12C403-12 511 55 511 191C511 284 454 357 360 368L360 370C441 381 495 446 495 528C495 651 386 702 275 702C138 702 54 608 53 472L91 472C96 586 154 669 275 669C359 669 457 625 457 528C457 408 342 379 241 383L241 350C355 358 473 323 473 191C473 81 377 21 275 21C148 21 69 100 74 228Z"  horiz-adv-x="556" vert-adv-y="1000"  />

      
      <glyph glyph-name="uni34" unicode="&#x34;" d="M365 690L29 214L29 176L365 176L365 0L403 0L403 176L519 176L519 209L403 209L403 690ZM365 209L67 209L363 638L365 638Z"  horiz-adv-x="556" vert-adv-y="1000"  />

      
      <glyph glyph-name="uni35" unicode="&#x35;" d="M58 333L97 333C141 397 196 430 274 430C387 430 470 340 470 228C470 115 391 21 274 21C163 21 73 96 75 211L37 211C28 72 142-12 274-12C412-12 508 91 508 228C508 365 411 463 274 463C205 463 143 435 103 380L101 382L160 657L479 657L479 690L130 690Z"  horiz-adv-x="556" vert-adv-y="1000"  />

      
      <glyph glyph-name="uni36" unicode="&#x36;" d="M288 21C180 21 93 106 93 220C93 332 174 423 288 423C400 423 481 328 481 220C481 111 399 21 288 21ZM507 520C494 636 411 702 296 702C83 702 42 481 42 311C42 143 95-12 288-12C421-12 519 87 519 220C519 355 424 456 288 456C196 456 112 397 82 308L80 310C80 446 106 669 296 669C387 669 454 609 469 520Z"  horiz-adv-x="556" vert-adv-y="1000"  />

      
      <glyph glyph-name="uni37" unicode="&#x37;" d="M56 657L463 657C226 402 175 197 160 0L204 0C236 340 362 498 501 652L501 690L56 690Z"  horiz-adv-x="556" vert-adv-y="1000"  />

      
      <glyph glyph-name="uni38" unicode="&#x38;" d="M479 198C479 76 384 21 278 21C172 21 77 76 77 198C77 313 170 359 278 359C386 359 479 313 479 198ZM65 529C65 452 108 394 192 378L192 376C98 365 39 296 39 198C39 55 146-12 278-12C410-12 517 55 517 198C517 296 458 365 364 376L364 378C448 394 491 452 491 529C491 659 385 702 278 702C171 702 65 659 65 529ZM453 529C453 431 367 392 278 392C189 392 103 431 103 529C103 634 187 669 278 669C369 669 453 634 453 529Z"  horiz-adv-x="556" vert-adv-y="1000"  />

      
      <glyph glyph-name="uni39" unicode="&#x39;" d="M279 267C168 267 84 361 84 470C84 579 168 669 279 669C390 669 474 580 474 470C474 358 393 267 279 267ZM55 170C68 54 151-12 266-12C479-12 520 209 520 379C520 655 385 702 279 702C144 702 46 606 46 470C46 332 141 234 279 234C386 234 452 298 480 374L482 372C482 249 456 21 266 21C175 21 108 81 93 170Z"  horiz-adv-x="556" vert-adv-y="1000"  />

      
      <glyph glyph-name="uni3a" unicode="&#x3a;" d="M113 514L113 411L164 411L164 514ZM164 0L164 103L113 103L113 0Z"  horiz-adv-x="278" vert-adv-y="1000"  />

      
      <glyph glyph-name="uni3b" unicode="&#x3b;" d="M100-126C149-108 164-53 164 0L164 103L113 103L113 0L134 0C134-27 129-80 100-93ZM113 514L113 411L164 411L164 514Z"  horiz-adv-x="278" vert-adv-y="1000"  />

      
      <glyph glyph-name="uni3c" unicode="&#x3c;" d="M554 514L46 280L46 228L554-8L554 34L79 254L554 472Z"  horiz-adv-x="600" vert-adv-y="1000"  />

      
      <glyph glyph-name="uni3d" unicode="&#x3d;" d="M552 369L48 369L48 331L552 331ZM552 175L48 175L48 137L552 137Z"  horiz-adv-x="600" vert-adv-y="1000"  />

      
      <glyph glyph-name="uni3e" unicode="&#x3e;" d="M46-8L554 226L554 278L46 514L46 472L521 252L46 34Z"  horiz-adv-x="600" vert-adv-y="1000"  />

      
      <glyph glyph-name="uni3f" unicode="&#x3f;" d="M81 493C81 607 142 693 262 693C345 693 423 651 423 552C423 482 373 432 324 386C276 340 236 287 236 181L274 181C274 298 327 343 372 382C417 426 461 466 461 552C461 673 371 731 265 731C120 731 43 635 43 493ZM231 0L282 0L282 103L231 103Z"  horiz-adv-x="519" vert-adv-y="1000"  />

      
      <glyph glyph-name="uni40" unicode="&#x40;" d="M425 547C509 547 517 466 517 429C517 376 490 297 452 244C420 199 375 165 336 165C278 165 233 213 233 287C233 392 312 547 425 547ZM609 560L568 560L545 489L543 489C535 536 495 580 431 580C293 580 195 421 195 282C195 201 247 132 323 132C377 132 425 157 457 203L459 203C460 155 490 132 525 132C629 132 754 269 754 420C754 601 604 731 415 731C215 731 46 565 46 360C46 151 206-17 419-17C548-17 676 54 738 168L694 168C634 76 529 16 419 16C252 16 84 156 84 353C84 540 234 698 417 698C565 698 716 590 716 423C716 310 627 170 536 170C515 170 497 184 497 204C497 218 506 243 513 264Z"  horiz-adv-x="800" vert-adv-y="1000"  />

      
      <glyph glyph-name="uni41" unicode="&#x41;" d="M275 714L-12 0L35 0L126 229L468 229L558 0L605 0L323 714ZM140 267L299 671L301 671L454 267Z"  horiz-adv-x="593" vert-adv-y="1000"  />

      
      <glyph glyph-name="uni42" unicode="&#x42;" d="M107 352L349 352C443 352 554 322 554 200C554 94 475 38 349 38L107 38ZM63 0L349 0C498 0 598 70 598 200C598 344 456 378 437 375L435 377C518 387 574 452 574 529C574 621 519 714 349 714L63 714ZM107 676L349 676C444 676 530 640 530 537C530 450 468 390 349 390L107 390Z"  horiz-adv-x="630" vert-adv-y="1000"  />

      
      <glyph glyph-name="uni43" unicode="&#x43;" d="M663 501C662 511 629 731 376 731C162 731 36 566 36 357C36 148 162-17 376-17C533-17 659 108 675 278L631 278C623 145 515 21 376 21C189 21 80 174 80 357C80 540 189 693 376 693C495 693 600 621 619 501Z"  horiz-adv-x="704" vert-adv-y="1000"  />

      
      <glyph glyph-name="uni44" unicode="&#x44;" d="M107 676L290 676C396 676 583 650 583 358C583 111 432 38 299 38L107 38ZM63 0L295 0C524 0 627 156 627 358C627 539 552 714 297 714L63 714Z"  horiz-adv-x="667" vert-adv-y="1000"  />

      
      <glyph glyph-name="uni45" unicode="&#x45;" d="M107 38L107 352L517 352L517 390L107 390L107 676L543 676L543 714L63 714L63 0L548 0L548 38Z"  horiz-adv-x="560" vert-adv-y="1000"  />

      
      <glyph glyph-name="uni46" unicode="&#x46;" d="M471 352L471 390L107 390L107 676L511 676L511 714L63 714L63 0L107 0L107 352Z"  horiz-adv-x="514" vert-adv-y="1000"  />

      
      <glyph glyph-name="uni47" unicode="&#x47;" d="M382 350L382 312L645 312C652 137 545 21 375 21C179 21 81 171 81 353C81 531 182 693 375 693C505 693 596 616 629 493L671 493C646 642 521 731 374 731C159 731 37 555 37 353C37 148 157-17 373-17C499-17 608 48 643 152L645 152L645 0L683 0L683 350Z"  horiz-adv-x="741" vert-adv-y="1000"  />

      
      <glyph glyph-name="uni48" unicode="&#x48;" d="M563 352L563 0L607 0L607 714L563 714L563 390L107 390L107 714L63 714L63 0L107 0L107 352Z"  horiz-adv-x="670" vert-adv-y="1000"  />

      
      <glyph glyph-name="uni49" unicode="&#x49;" d="M63 0L107 0L107 714L63 714Z"  horiz-adv-x="170" vert-adv-y="1000"  />

      
      <glyph glyph-name="uni4a" unicode="&#x4a;" d="M20 227C20 120 29-17 222-17C421-17 418 138 418 222L418 714L374 714L374 237C374 138 382 21 217 21C75 21 57 121 64 227Z"  horiz-adv-x="481" vert-adv-y="1000"  />

      
      <glyph glyph-name="uni4b" unicode="&#x4b;" d="M63 0L107 0L107 252L255 387L578 0L633 0L287 417L613 714L556 714L107 303L107 714L63 714Z"  horiz-adv-x="613" vert-adv-y="1000"  />

      
      <glyph glyph-name="uni4c" unicode="&#x4c;" d="M63 0L512 0L512 38L107 38L107 714L63 714Z"  horiz-adv-x="500" vert-adv-y="1000"  />

      
      <glyph glyph-name="uni4d" unicode="&#x4d;" d="M63 0L107 0L107 660L109 660L384 0L428 0L700 660L702 660L702 0L746 0L746 714L683 714L407 49L405 49L126 714L63 714Z"  horiz-adv-x="809" vert-adv-y="1000"  />

      
      <glyph glyph-name="uni4e" unicode="&#x4e;" d="M63 0L107 0L107 660L109 660L563 0L615 0L615 714L571 714L571 59L569 59L118 714L63 714Z"  horiz-adv-x="678" vert-adv-y="1000"  />

      
      <glyph glyph-name="uni4f" unicode="&#x4f;" d="M710 357C710 566 584 731 371 731C157 731 31 566 31 357C31 148 157-17 371-17C584-17 710 148 710 357ZM75 357C75 540 184 693 371 693C557 693 666 540 666 357C666 174 557 21 371 21C184 21 75 174 75 357Z"  horiz-adv-x="741" vert-adv-y="1000"  />

      
      <glyph glyph-name="uni50" unicode="&#x50;" d="M107 676L364 676C507 676 531 568 531 515C531 441 487 356 358 356L107 356ZM63 0L107 0L107 318L351 318C493 318 575 389 575 514C575 685 448 714 367 714L63 714Z"  horiz-adv-x="591" vert-adv-y="1000"  />

      
      <glyph glyph-name="uni51" unicode="&#x51;" d="M453 182L430 151L538 74C493 40 437 21 371 21C184 21 75 174 75 357C75 540 184 693 371 693C557 693 666 540 666 357C666 255 632 161 568 99ZM691-37L714-6L603 74C672 140 710 241 710 357C710 566 584 731 371 731C157 731 31 566 31 357C31 148 157-17 371-17C451-17 519 6 573 48Z"  horiz-adv-x="741" vert-adv-y="1000"  />

      
      <glyph glyph-name="uni52" unicode="&#x52;" d="M107 363L107 676L361 676C457 676 543 635 543 527C543 412 465 363 361 363ZM63 0L107 0L107 325L361 325C486 325 520 269 529 200C537 131 521 49 548 0L597 0C568 38 580 118 573 192C566 266 540 333 434 345L434 347C529 363 587 434 587 530C587 668 486 714 361 714L63 714Z"  horiz-adv-x="630" vert-adv-y="1000"  />

      
      <glyph glyph-name="uni53" unicode="&#x53;" d="M573 510C566 667 449 731 300 731C187 731 60 678 60 541C60 405 182 376 303 351C425 326 547 305 547 184C547 60 426 21 340 21C199 21 74 80 83 236L39 236C37 52 173-17 340-17C449-17 591 36 591 184C591 326 469 357 347 382C226 407 104 426 104 541C104 659 219 693 300 693C432 693 524 632 529 510Z"  horiz-adv-x="630" vert-adv-y="1000"  />

      
      <glyph glyph-name="uni54" unicode="&#x54;" d="M237 676L237 0L281 0L281 676L533 676L533 714L-14 714L-14 676Z"  horiz-adv-x="519" vert-adv-y="1000"  />

      
      <glyph glyph-name="uni55" unicode="&#x55;" d="M63 714L63 286C63 191 77-17 331-17C545-17 609 116 609 286L609 714L565 714L565 286C565 124 506 21 331 21C125 21 107 200 107 286L107 714Z"  horiz-adv-x="672" vert-adv-y="1000"  />

      
      <glyph glyph-name="uni56" unicode="&#x56;" d="M32 714L-14 714L252 0L303 0L570 714L526 714L279 38L277 38Z"  horiz-adv-x="556" vert-adv-y="1000"  />

      
      <glyph glyph-name="uni57" unicode="&#x57;" d="M200 0L249 0L442 676L444 676L640 0L690 0L895 714L848 714L665 47L663 47L471 714L416 714L227 47L225 47L39 714L-6 714Z"  horiz-adv-x="889" vert-adv-y="1000"  />

      
      <glyph glyph-name="uni58" unicode="&#x58;" d="M251 367L-17 0L35 0L278 334L520 0L573 0L307 367L559 714L509 714L278 400L52 714L1 714Z"  horiz-adv-x="556" vert-adv-y="1000"  />

      
      <glyph glyph-name="uni59" unicode="&#x59;" d="M287 336L29 714L-21 714L264 299L264 0L308 0L308 299L595 714L546 714Z"  horiz-adv-x="574" vert-adv-y="1000"  />

      
      <glyph glyph-name="uni5a" unicode="&#x5a;" d="M28 676L481 676L-1 38L-1 0L538 0L538 38L45 38L529 676L529 714L28 714Z"  horiz-adv-x="537" vert-adv-y="1000"  />

      
      <glyph glyph-name="uni5b" unicode="&#x5b;" d="M231 698L231 731L94 731L94-184L231-184L231-151L132-151L132 698Z"  horiz-adv-x="241" vert-adv-y="1000"  />

      
      <glyph glyph-name="uni5c" unicode="&#x5c;" d="M346-17L28 731L-13 731L305-17Z"  horiz-adv-x="333" vert-adv-y="1000"  />

      
      <glyph glyph-name="uni5d" unicode="&#x5d;" d="M10-151L10-184L147-184L147 731L10 731L10 698L109 698L109-151Z"  horiz-adv-x="241" vert-adv-y="1000"  />

      
      <glyph glyph-name="uni5e" unicode="&#x5e;" d="M561 237L327 690L275 690L39 237L81 237L301 657L519 237Z"  horiz-adv-x="600" vert-adv-y="1000"  />

      
      <glyph glyph-name="uni5f" unicode="&#x5f;" d="M500-125L500-75L0-75L0-125Z"  horiz-adv-x="500" vert-adv-y="1000"  />

      
      <glyph glyph-name="uni2018" unicode="&#x2018;" d="M143 714C94 696 79 641 79 588L79 485L130 485L130 588L109 588C109 615 114 668 143 681Z"  horiz-adv-x="204" vert-adv-y="1000"  />

      
      <glyph glyph-name="uni61" unicode="&#x61;" d="M397 196C397 169 378 21 205 21C115 21 70 71 70 133C70 210 121 242 211 252C285 262 367 258 397 292ZM435 392C435 498 345 526 255 526C134 526 64 469 59 356L97 356C102 445 163 493 255 493C372 493 398 415 398 392C398 308 391 297 221 285C136 278 32 253 32 133C32 25 107-12 204-12C302-12 371 41 395 102L397 102L397 75C397 33 406 0 466 0C476 0 486 2 497 4L497 36C485 34 476 33 469 33C435 33 435 65 435 95Z"  horiz-adv-x="500" vert-adv-y="1000"  />

      
      <glyph glyph-name="uni62" unicode="&#x62;" d="M300 21C160 21 104 143 104 269C104 398 166 493 300 493C423 493 485 383 485 269C485 151 435 21 300 21ZM65 0L103 0L103 115L105 115C113 88 165-12 300-12C371-12 523 24 523 269C523 412 451 526 300 526C217 526 134 485 105 405L103 405L103 714L65 714Z"  horiz-adv-x="556" vert-adv-y="1000"  />

      
      <glyph glyph-name="uni63" unicode="&#x63;" d="M481 355C470 472 380 526 269 526C117 526 33 405 33 262C33 119 102-12 269-12C380-12 469 58 486 181L448 181C435 87 365 21 269 21C136 21 71 123 71 262C71 379 140 493 269 493C362 493 436 446 443 355Z"  horiz-adv-x="519" vert-adv-y="1000"  />

      
      <glyph glyph-name="uni64" unicode="&#x64;" d="M262 21C130 21 70 135 70 256C70 380 125 493 261 493C393 493 452 376 452 256C452 138 392 21 262 21ZM453 0L491 0L491 714L453 714L453 399L451 399C424 480 345 526 261 526C106 526 32 408 32 256C32 114 99-12 254-12C346-12 409 29 451 110L453 110Z"  horiz-adv-x="556" vert-adv-y="1000"  />

      
      <glyph glyph-name="uni65" unicode="&#x65;" d="M486 252C493 399 421 526 260 526C105 526 31 389 33 248C31 106 110-12 260-12C382-12 462 54 482 174L444 174C426 79 357 21 260 21C133 21 69 131 71 252ZM71 285C79 387 146 493 260 493C378 493 446 393 448 285Z"  horiz-adv-x="519" vert-adv-y="1000"  />

      
      <glyph glyph-name="uni66" unicode="&#x66;" d="M92 481L92 0L130 0L130 481L237 481L237 514L130 514L130 617C130 674 163 689 205 689C220 689 235 687 250 684L250 717C235 720 220 722 205 722C143 722 92 692 92 620L92 514L0 514L0 481Z"  horiz-adv-x="241" vert-adv-y="1000"  />

      
      <glyph glyph-name="uni67" unicode="&#x67;" d="M255 493C381 493 442 388 442 273C442 157 380 52 255 52C134 52 71 152 71 273C71 382 131 493 255 493ZM443 514L443 407L441 407C413 484 335 526 255 526C110 526 33 409 33 273C33 130 104 19 255 19C342 19 405 60 441 136L443 136L443 18C443-16 440-163 260-163C176-163 104-127 96-36L58-36C64-155 149-196 259-196C481-203 481-13 481 27L481 514Z"  horiz-adv-x="537" vert-adv-y="1000"  />

      
      <glyph glyph-name="uni68" unicode="&#x68;" d="M56 714L56 0L94 0L94 278C94 404 164 493 279 493C419 493 425 378 425 325L425 0L463 0L463 318C463 381 461 526 280 526C200 526 122 481 96 404L94 404L94 714Z"  horiz-adv-x="519" vert-adv-y="1000"  />

      
      <glyph glyph-name="uni69" unicode="&#x69;" d="M103 0L103 514L65 514L65 0ZM103 611L103 714L65 714L65 611Z"  horiz-adv-x="168" vert-adv-y="1000"  />

      
      <glyph glyph-name="uni6a" unicode="&#x6a;" d="M65 514L65-52C65-130 45-152-9-152C-20-152-28-151-34-150L-34-183C-24-184-12-184-2-184C86-184 103-124 103-55L103 514ZM103 611L103 714L65 714L65 611Z"  horiz-adv-x="168" vert-adv-y="1000"  />

      
      <glyph glyph-name="uni6b" unicode="&#x6b;" d="M58 0L96 0L96 194L213 293L432 0L484 0L243 322L468 514L413 514L96 241L96 714L58 714Z"  horiz-adv-x="463" vert-adv-y="1000"  />

      
      <glyph glyph-name="uni6c" unicode="&#x6c;" d="M65 714L65 0L103 0L103 714Z"  horiz-adv-x="168" vert-adv-y="1000"  />

      
      <glyph glyph-name="uni6d" unicode="&#x6d;" d="M57 0L95 0L95 304C95 436 185 493 258 493C291 493 379 481 379 352L379 0L417 0L417 304C417 427 485 493 578 493C608 493 701 483 701 352L701 0L739 0L739 351C739 472 671 526 578 526C495 526 445 487 415 417L413 417C402 470 356 526 258 526C181 526 113 474 97 409L95 409L95 514L57 514Z"  horiz-adv-x="796" vert-adv-y="1000"  />

      
      <glyph glyph-name="uni6e" unicode="&#x6e;" d="M56 0L94 0L94 278C94 404 164 493 279 493C419 493 425 378 425 325L425 0L463 0L463 318C463 381 461 526 280 526C200 526 122 481 96 404L94 404L94 514L56 514Z"  horiz-adv-x="519" vert-adv-y="1000"  />

      
      <glyph glyph-name="uni6f" unicode="&#x6f;" d="M32 257C32 111 117-12 268-12C419-12 504 111 504 257C504 403 419 526 268 526C117 526 32 403 32 257ZM70 257C70 380 139 493 268 493C397 493 466 380 466 257C466 134 397 21 268 21C139 21 70 134 70 257Z"  horiz-adv-x="537" vert-adv-y="1000"  />

      
      <glyph glyph-name="uni70" unicode="&#x70;" d="M292 21C147 21 104 134 104 256C104 378 155 493 292 493C430 493 485 373 485 256C485 129 426 21 292 21ZM103 514L65 514L65-184L103-184L103 107L105 107C135 24 207-12 292-12C449-12 523 100 523 256C523 401 450 526 292 526C179 526 121 447 105 396L103 396Z"  horiz-adv-x="556" vert-adv-y="1000"  />

      
      <glyph glyph-name="uni71" unicode="&#x71;" d="M261 21C125 21 70 134 70 258C70 379 130 493 262 493C392 493 452 376 452 258C452 138 393 21 261 21ZM453-184L491-184L491 514L453 514L453 404L451 404C409 485 346 526 254 526C99 526 32 400 32 258C32 106 106-12 261-12C345-12 424 34 451 115L453 115Z"  horiz-adv-x="556" vert-adv-y="1000"  />

      
      <glyph glyph-name="uni72" unicode="&#x72;" d="M94 514L56 514L56 0L94 0L94 281C98 358 114 390 152 429C198 474 254 484 294 479L294 517C201 521 117 467 97 400L94 400Z"  horiz-adv-x="278" vert-adv-y="1000"  />

      
      <glyph glyph-name="uni73" unicode="&#x73;" d="M36 171C39 51 127-12 244-12C334-12 445 19 445 130C445 238 365 262 263 281C180 299 92 312 92 394C92 467 170 493 240 493C326 493 391 455 392 362L430 362C430 479 349 526 240 526C153 526 54 496 54 394C54 289 142 266 231 248C319 230 407 217 407 130C407 41 311 21 244 21C151 21 80 76 74 171Z"  horiz-adv-x="481" vert-adv-y="1000"  />

      
      <glyph glyph-name="uni74" unicode="&#x74;" d="M245 514L133 514L133 674L95 674L95 514L0 514L0 481L95 481L95 122C91 6 166-5 244 0L244 33C172 31 133 39 133 122L133 481L245 481Z"  horiz-adv-x="259" vert-adv-y="1000"  />

      
      <glyph glyph-name="uni75" unicode="&#x75;" d="M463 514L425 514L425 236C425 110 355 21 240 21C100 21 94 136 94 189L94 514L56 514L56 196C56 133 58-12 239-12C319-12 397 33 423 110L425 110L425 0L463 0Z"  horiz-adv-x="519" vert-adv-y="1000"  />

      
      <glyph glyph-name="uni76" unicode="&#x76;" d="M446 514L404 514L230 44L228 44L42 514L-2 514L205 0L252 0Z"  horiz-adv-x="444" vert-adv-y="1000"  />

      
      <glyph glyph-name="uni77" unicode="&#x77;" d="M39 514L-2 514L161 0L209 0L351 466L353 466L494 0L541 0L706 514L664 514L520 44L518 44L377 514L326 514L186 44L184 44Z"  horiz-adv-x="704" vert-adv-y="1000"  />

      
      <glyph glyph-name="uni78" unicode="&#x78;" d="M-6 0L42 0L222 241L398 0L450 0L247 270L433 514L384 514L222 299L61 514L8 514L196 270Z"  horiz-adv-x="444" vert-adv-y="1000"  />

      
      <glyph glyph-name="uni79" unicode="&#x79;" d="M209 3C185-65 171-103 156-118C130-144 103-151 49-151L49-184C107-184 142-182 169-161C191-144 208-105 229-55L449 514L406 514L230 45L39 514L-6 514Z"  horiz-adv-x="444" vert-adv-y="1000"  />

      
      <glyph glyph-name="uni7a" unicode="&#x7a;" d="M55 33L401 478L401 514L36 514L36 481L354 481L9 36L9 0L417 0L417 33Z"  horiz-adv-x="426" vert-adv-y="1000"  />

      
      <glyph glyph-name="uni7b" unicode="&#x7b;" d="M293 731L243 731C187 731 155 704 155 613L155 454C155 373 141 294 83 292L83 254C141 252 155 173 155 92L155-66C155-157 187-184 243-184L293-184L293-151L245-151C204-151 193-124 193-48L193 109C193 242 136 264 123 276C136 283 193 305 193 438L193 595C193 671 204 698 245 698L293 698Z"  horiz-adv-x="333" vert-adv-y="1000"  />

      
      <glyph glyph-name="uni7c" unicode="&#x7c;" d="M92-17L130-17L130 731L92 731Z"  horiz-adv-x="222" vert-adv-y="1000"  />

      
      <glyph glyph-name="uni7d" unicode="&#x7d;" d="M40-184L90-184C146-184 178-157 178-66L178 92C178 173 192 252 250 254L250 292C192 294 178 373 178 454L178 613C178 704 146 731 90 731L40 731L40 698L88 698C129 698 140 671 140 595L140 438C140 305 197 283 210 276C197 264 140 242 140 109L140-48C140-124 129-151 88-151L40-151Z"  horiz-adv-x="333" vert-adv-y="1000"  />

      
      <glyph glyph-name="uni7e" unicode="&#x7e;" d="M500 312C483 280 447 237 408 237C366 237 334 260 306 273C261 293 235 305 195 305C134 305 104 273 73 222L102 192C116 224 142 267 201 267C227 267 271 248 293 237C338 214 370 199 407 199C465 199 502 244 528 284Z"  horiz-adv-x="600" vert-adv-y="1000"  />

      
      <glyph glyph-name="unia1" unicode="&#xa1;" d="M153-184L153 57L141 347L117 347L105 57L105-184ZM104 535L104 432L155 432L155 535Z"  horiz-adv-x="259" vert-adv-y="1000"  />

      
      <glyph glyph-name="unia2" unicode="&#xa2;" d="M272 21C149 28 89 128 89 262C89 375 153 484 272 493ZM272-118L304-118L304-12C408-5 488 65 504 181L466 181C454 93 392 28 304 21L304 493C390 487 454 440 461 355L499 355C489 465 408 521 304 526L304 615L272 615L272 526C130 519 51 400 51 262C51 123 116-5 272-12Z"  horiz-adv-x="556" vert-adv-y="1000"  />

      
      <glyph glyph-name="unia3" unicode="&#xa3;" d="M50 330L128 330C145 304 157 264 157 224C157 135 100 71 44 17L69-17C111 9 138 27 189 27C222 27 253 16 285 5C318-6 352-17 393-17C451-17 505 15 544 56L522 89C485 55 446 21 387 21C355 21 326 32 296 42C265 54 233 65 192 65C157 65 127 49 98 29L96 31C147 75 195 146 195 222C195 272 185 310 172 330L313 330L313 363L153 363C128 415 88 469 88 541C88 635 162 693 278 693C414 693 473 619 474 484L512 484C516 648 432 731 277 731C158 731 50 664 50 539C50 475 80 417 110 363L50 363Z"  horiz-adv-x="556" vert-adv-y="1000"  />

      
      <glyph glyph-name="uni2044" unicode="&#x2044;" d="M-169-24L-129-24L336 714L296 714Z"  horiz-adv-x="167" vert-adv-y="1000"  />

      
      <glyph glyph-name="unia5" unicode="&#xa5;" d="M-7 714L231 342L139 342L139 309L259 309L259 231L139 231L139 198L259 198L259 0L297 0L297 198L417 198L417 231L297 231L297 309L417 309L417 342L325 342L563 714L518 714L279 340L41 714Z"  horiz-adv-x="556" vert-adv-y="1000"  />

      
      <glyph glyph-name="uni0192" unicode="&#x0192;" d="M5-178C24-182 41-184 58-184C171-184 197-70 208-13L288 396L409 396L414 429L294 429L326 593C341 666 382 693 431 693C446 693 464 691 485 687L493 725C471 730 451 731 432 731C339 731 299 666 285 598L252 429L141 429L134 396L246 396L167-8C152-89 119-146 62-146C45-146 29-144 12-141Z"  horiz-adv-x="556" vert-adv-y="1000"  />

      
      <glyph glyph-name="unia7" unicode="&#xa7;" d="M339 359C394 327 465 282 465 213C465 181 450 153 430 135C409 118 374 98 363 101C309 136 253 169 198 202C150 231 90 268 90 337C90 392 140 431 187 449ZM449 536C448 654 390 731 275 731C191 735 109 675 109 593C104 569 117 504 163 471C105 450 52 401 52 337C47 239 131 192 231 134C320 86 411 42 411-46C411-119 359-151 280-151C184-151 140-79 137 9L99 9C99-104 165-184 281-184C371-184 449-146 449-46C449 11 432 40 392 77C456 94 503 136 503 213C503 320 412 367 324 413C237 459 147 502 147 593C148 658 216 700 275 698C364 698 415 617 411 536Z"  horiz-adv-x="556" vert-adv-y="1000"  />

      
      <glyph glyph-name="unia4" unicode="&#xa4;" d="M519 131L465 185C506 230 526 288 526 345C526 402 506 460 465 506L520 560L493 587L439 532C392 573 334 593 277 593C220 592 163 572 117 533L61 589L34 562L91 506C50 460 30 402 30 345C31 288 51 231 91 184L35 129L62 102L117 158C163 117 220 97 277 97C334 97 392 117 439 158L492 104ZM278 135C168 135 74 229 74 345C74 461 168 555 278 555C388 555 482 461 482 345C482 229 388 135 278 135Z"  horiz-adv-x="556" vert-adv-y="1000"  />

      
      <glyph glyph-name="uni27" unicode="&#x27;" d="M83 485L121 485L121 714L83 714Z"  horiz-adv-x="204" vert-adv-y="1000"  />

      
      <glyph glyph-name="uni201C" unicode="&#x201C;" d="M128 714C79 696 64 641 64 588L64 485L115 485L115 588L94 588C94 615 99 668 128 681ZM254 714C205 696 190 641 190 588L190 485L241 485L241 588L220 588C220 615 225 668 254 681Z"  horiz-adv-x="315" vert-adv-y="1000"  />

      
      <glyph glyph-name="uniab" unicode="&#xab;" d="M181 121L181 170L96 272L181 372L181 423L67 292L67 252ZM309 121L309 170L224 272L309 372L309 423L195 292L195 252Z"  horiz-adv-x="389" vert-adv-y="1000"  />

      
      <glyph glyph-name="uni2039" unicode="&#x2039;" d="M181 121L181 170L96 272L181 372L181 423L67 292L67 252Z"  horiz-adv-x="259" vert-adv-y="1000"  />

      
      <glyph glyph-name="uni203A" unicode="&#x203A;" d="M78 121L192 252L192 292L78 423L78 372L163 272L78 170Z"  horiz-adv-x="259" vert-adv-y="1000"  />

      
      <glyph glyph-name="uniFB01" unicode="&#xFB01;" d="M0 481L92 481L92 0L130 0L130 481L237 481L237 514L130 514L130 617C130 674 163 689 205 689C220 689 235 687 250 684L250 717C235 720 220 722 205 722C143 722 92 692 92 620L92 514L0 514ZM286 611L324 611L324 714L286 714ZM286 0L324 0L324 514L286 514Z"  horiz-adv-x="389" vert-adv-y="1000"  />

      
      <glyph glyph-name="uniFB02" unicode="&#xFB02;" d="M0 481L92 481L92 0L130 0L130 481L237 481L237 514L130 514L130 617C130 674 163 689 205 689C220 689 235 687 250 684L250 717C235 720 220 722 205 722C143 722 92 692 92 620L92 514L0 514ZM286 0L324 0L324 714L286 714Z"  horiz-adv-x="389" vert-adv-y="1000"  />

      
      <glyph glyph-name="uni2013" unicode="&#x2013;" d="M0 253L500 253L500 291L0 291Z"  horiz-adv-x="500" vert-adv-y="1000"  />

      
      <glyph glyph-name="uni2020" unicode="&#x2020;" d="M54 514L54 481L259 481L259-146L297-146L297 481L502 481L502 514L297 514L297 714L259 714L259 514Z"  horiz-adv-x="556" vert-adv-y="1000"  />

      
      <glyph glyph-name="uni2021" unicode="&#x2021;" d="M259 714L259 514L54 514L54 481L259 481L259 87L54 87L54 54L259 54L259-146L297-146L297 54L502 54L502 87L297 87L297 481L502 481L502 514L297 514L297 714Z"  horiz-adv-x="556" vert-adv-y="1000"  />

      
      <glyph glyph-name="unib7" unicode="&#xb7;" d="M85 317C85 289 110 262 139 262C168 262 194 288 194 317C194 346 167 371 139 371C111 371 85 345 85 317Z"  horiz-adv-x="278" vert-adv-y="1000"  />

      
      <glyph glyph-name="unib6" unicode="&#xb6;" d="M273-146L311-146L311 681L468 681L468-146L506-146L506 714L289 714C149 714 66 646 66 518C66 413 156 324 273 324Z"  horiz-adv-x="600" vert-adv-y="1000"  />

      
      <glyph glyph-name="uni2022" unicode="&#x2022;" d="M72 357C72 258 151 178 250 178C349 178 429 258 429 357C429 456 349 535 250 535C151 535 72 456 72 357Z"  horiz-adv-x="500" vert-adv-y="1000"  />

      
      <glyph glyph-name="uni201A" unicode="&#x201A;" d="M125 103L74 103L74 0L95 0C95-27 90-80 61-93L61-126C110-108 125-53 125 0Z"  horiz-adv-x="204" vert-adv-y="1000"  />

      
      <glyph glyph-name="uni201E" unicode="&#x201E;" d="M251 103L200 103L200 0L221 0C221-27 216-80 187-93L187-126C236-108 251-53 251 0ZM125 103L74 103L74 0L95 0C95-27 90-80 61-93L61-126C110-108 125-53 125 0Z"  horiz-adv-x="315" vert-adv-y="1000"  />

      
      <glyph glyph-name="uni201D" unicode="&#x201D;" d="M251 714L200 714L200 611L221 611C221 584 216 531 187 518L187 485C236 503 251 558 251 611ZM125 714L74 714L74 611L95 611C95 584 90 531 61 518L61 485C110 503 125 558 125 611Z"  horiz-adv-x="315" vert-adv-y="1000"  />

      
      <glyph glyph-name="unibb" unicode="&#xbb;" d="M80 121L194 252L194 292L80 423L80 372L165 272L80 170ZM208 121L322 252L322 292L208 423L208 372L293 272L208 170Z"  horiz-adv-x="389" vert-adv-y="1000"  />

      
      <glyph glyph-name="uni2026" unicode="&#x2026;" d="M141 0L192 0L192 103L141 103ZM474 0L525 0L525 103L474 103ZM807 0L858 0L858 103L807 103Z"  horiz-adv-x="1000" vert-adv-y="1000"  />

      
      <glyph glyph-name="uni2030" unicode="&#x2030;" d="M105-24L145-24L610 714L570 714ZM527-12C624-12 678 59 678 158C678 254 622 326 527 326C435 326 374 253 374 158C374 57 425-12 527-12ZM525 21C443 21 412 81 412 158C412 235 450 293 525 293C599 293 640 231 640 158C640 81 600 21 525 21ZM882-12C979-12 1034 59 1034 158C1034 254 977 326 882 326C790 326 730 253 730 158C730 57 780-12 882-12ZM882 21C800 21 768 81 768 158C768 235 807 293 882 293C956 293 996 231 996 158C996 81 957 21 882 21ZM193 702C101 702 40 630 40 535C40 434 91 364 193 364C290 364 344 436 344 535C344 631 288 702 193 702ZM192 669C266 669 306 608 306 535C306 458 267 396 192 397C110 397 78 458 78 535C78 612 117 669 192 669Z"  horiz-adv-x="1074" vert-adv-y="1000"  />

      
      <glyph glyph-name="unibf" unicode="&#xbf;" d="M437 42C437-72 376-158 256-158C173-158 95-116 95-17C95 53 145 103 194 149C242 195 282 248 282 354L244 354C244 237 191 192 146 153C101 109 57 69 57-17C57-138 147-196 253-196C398-196 475-100 475 42ZM287 535L236 535L236 432L287 432Z"  horiz-adv-x="519" vert-adv-y="1000"  />

      
      <glyph glyph-name="uni60" unicode="&#x60;" d="M141 591L21 731L-30 731L104 591Z"  horiz-adv-x="167" vert-adv-y="1000"  />

      
      <glyph glyph-name="unib4" unicode="&#xb4;" d="M26 591L63 591L197 731L146 731Z"  horiz-adv-x="167" vert-adv-y="1000"  />

      
      <glyph glyph-name="uni02C6" unicode="&#x02C6;" d="M63 731L-52 591L-14 591L83 706L181 591L219 591L103 731Z"  horiz-adv-x="167" vert-adv-y="1000"  />

      
      <glyph glyph-name="uni02DC" unicode="&#x02DC;" d="M-32 602C-28 628-15 659 13 659C37 659 60 645 83 631C104 618 128 602 152 602C178 602 195 615 207 631C219 647 225 669 228 692L199 692C196 666 182 635 154 635C133 635 110 652 86 665C62 678 39 692 16 692C-31 692-57 646-61 602Z"  horiz-adv-x="167" vert-adv-y="1000"  />

      
      <glyph glyph-name="uniaf" unicode="&#xaf;" d="M205 629L205 662L-37 662L-37 629Z"  horiz-adv-x="167" vert-adv-y="1000"  />

      
      <glyph glyph-name="uni02D8" unicode="&#x02D8;" d="M186 731C178 680 136 642 87 644C48 638-2 664-19 731L-52 731C-43 656 14 611 88 611C155 611 211 667 219 731Z"  horiz-adv-x="167" vert-adv-y="1000"  />

      
      <glyph glyph-name="uni02D9" unicode="&#x02D9;" d="M105 594L105 697L61 697L61 594Z"  horiz-adv-x="167" vert-adv-y="1000"  />

      
      <glyph glyph-name="unia8" unicode="&#xa8;" d="M26 594L26 697L-18 697L-18 594ZM184 594L184 697L140 697L140 594Z"  horiz-adv-x="167" vert-adv-y="1000"  />

      
      <glyph glyph-name="uni02DA" unicode="&#x02DA;" d="M-10 640C-10 585 34 541 89 541C144 541 188 585 188 640C188 695 144 739 89 739C34 739-10 695-10 640ZM17 640C17 680 49 712 89 712C129 712 161 680 161 640C161 600 129 568 89 568C49 568 17 600 17 640Z"  horiz-adv-x="167" vert-adv-y="1000"  />

      
      <glyph glyph-name="unib8" unicode="&#xb8;" d="M83 0L27-75L43-88C58-81 75-76 96-76C114-76 145-90 145-122C145-158 111-169 82-169C48-169 24-159 2-151L-9-175C8-184 39-196 81-196C141-196 183-175 183-122C183-71 146-49 108-49C92-49 80-54 71-58L69-56L117 0Z"  horiz-adv-x="167" vert-adv-y="1000"  />

      
      <glyph glyph-name="uni02DD" unicode="&#x02DD;" d="M-19 591L115 731L64 731L-56 591ZM139 591L273 731L222 731L102 591Z"  horiz-adv-x="167" vert-adv-y="1000"  />

      
      <glyph glyph-name="uni02DB" unicode="&#x02DB;" d="M112 0C16-54 2-113 2-135C2-207 65-211 89-211C134-211 166-181 180-146L155-138C138-167 121-178 93-178C72-178 46-160 46-135C46-91 62-63 136 0Z"  horiz-adv-x="167" vert-adv-y="1000"  />

      
      <glyph glyph-name="uni02C7" unicode="&#x02C7;" d="M97 591L213 731L175 731L77 616L-20 731L-58 731L57 591Z"  horiz-adv-x="167" vert-adv-y="1000"  />

      
      <glyph glyph-name="uni2014" unicode="&#x2014;" d="M0 253L1000 253L1000 291L0 291Z"  horiz-adv-x="1000" vert-adv-y="1000"  />

      
      <glyph glyph-name="unic6" unicode="&#xc6;" d="M-9 0L31 0L163 254L431 254L431 0L855 0L855 38L475 38L475 352L825 352L825 390L475 390L475 676L854 676L854 714L364 714ZM431 292L183 292L384 676L431 676Z"  horiz-adv-x="870" vert-adv-y="1000"  />

      
      <glyph glyph-name="uniaa" unicode="&#xaa;" d="M250 498C250 481 238 393 125 393C74 393 45 423 45 462C45 504 78 524 133 530C177 536 231 533 250 554ZM61 596C65 646 104 675 158 675C212 675 251 657 251 622C251 571 246 565 136 557C80 553 13 538 13 462C13 388 62 366 128 366C194 366 239 398 251 434L253 434L253 420C253 395 259 375 298 375C304 375 311 376 318 377L318 404C310 402 304 402 300 402C282 402 282 421 282 439L282 617C282 685 223 702 161 702C82 702 37 665 29 596Z"  horiz-adv-x="310" vert-adv-y="1000"  />

      
      <glyph glyph-name="uni0141" unicode="&#x0141;" d="M63 714L63 305L-22 254L-22 216L63 269L63 0L512 0L512 38L107 38L107 296L342 438L342 474L107 331L107 714Z"  horiz-adv-x="500" vert-adv-y="1000"  />

      
      <glyph glyph-name="unid8" unicode="&#xd8;" d="M598 582C642 522 666 443 666 357C666 174 557 21 371 21C285 21 215 54 165 108ZM143 134C98 194 75 272 75 357C75 540 184 693 371 693C456 693 524 661 575 609ZM34 16L60-8L136 76C193 17 273-17 371-17C584-17 710 148 710 357C710 458 681 548 627 614L697 690L671 714L603 640C546 697 467 731 371 731C157 731 31 566 31 357C31 258 60 168 113 102Z"  horiz-adv-x="741" vert-adv-y="1000"  />

      
      <glyph glyph-name="uni0152" unicode="&#x0152;" d="M573 127C573 98 516 61 489 48C450 27 406 21 363 21C167 21 75 173 75 354C75 535 178 693 372 693C424 693 473 678 516 649C537 635 573 605 573 578ZM617 676L1039 676L1039 714L573 714L573 648C522 703 443 731 368 731C151 731 31 557 31 354C31 146 148-17 360-17C465-17 538 23 571 66L573 66L573 0L1041 0L1041 38L617 38L617 352L995 352L995 390L617 390Z"  horiz-adv-x="1056" vert-adv-y="1000"  />

      
      <glyph glyph-name="uniba" unicode="&#xba;" d="M167 366C269 366 325 438 325 534C325 630 269 702 167 702C65 702 9 630 9 534C9 438 65 366 167 366ZM167 393C80 393 41 460 41 534C41 608 80 675 167 675C254 675 293 608 293 534C293 460 254 393 167 393Z"  horiz-adv-x="334" vert-adv-y="1000"  />

      
      <glyph glyph-name="unie6" unicode="&#xe6;" d="M444 285C452 396 509 493 633 493C748 493 821 396 818 285ZM406 201C404 100 315 21 216 21C144 21 70 52 70 131C70 219 137 248 215 253C301 260 387 259 404 289L406 289ZM856 252C869 398 790 526 633 526C540 526 470 484 438 395L436 395C427 498 349 526 256 526C141 526 62 472 54 353L92 353C99 451 164 493 256 493C357 493 406 455 406 373C413 274 307 294 219 283C140 281 32 254 32 131C32 30 120-12 216-12C314-12 392 45 425 137L427 137C451 39 531-12 633-12C749-12 832 57 850 171L812 171C797 74 730 21 633 21C502 21 436 126 445 252Z"  horiz-adv-x="889" vert-adv-y="1000"  />

      
      <glyph glyph-name="uni0131" unicode="&#x0131;" d="M103 0L103 514L65 514L65 0Z"  horiz-adv-x="168" vert-adv-y="1000"  />

      
      <glyph glyph-name="uni0142" unicode="&#x0142;" d="M65 334L0 283L0 250L65 301L65 0L103 0L103 331L168 382L168 415L103 364L103 714L65 714Z"  horiz-adv-x="168" vert-adv-y="1000"  />

      
      <glyph glyph-name="unif8" unicode="&#xf8;" d="M109 112C83 152 70 204 70 257C70 380 139 493 268 493C329 493 377 467 408 428ZM428 400C454 359 466 309 466 257C466 134 397 21 268 21C209 21 162 45 129 84ZM513 490L489 513L434 455C396 499 339 526 268 526C117 526 32 403 32 257C32 191 49 130 82 84L25 23L49 0L103 57C142 15 198-12 268-12C419-12 504 111 504 257C504 322 487 382 455 428Z"  horiz-adv-x="537" vert-adv-y="1000"  />

      
      <glyph glyph-name="uni0153" unicode="&#x0153;" d="M252 21C123 21 70 130 70 250C70 362 112 493 253 493C384 493 426 375 426 250C426 147 392 21 252 21ZM857 252C864 394 801 526 645 526C540 526 473 474 446 374L444 374C423 470 353 526 254 526C100 526 32 396 32 250C32 115 89-12 251-12C355-12 417 41 443 139L445 139C463 43 537-12 645-12C761-12 829 60 853 169L815 169C794 81 739 21 645 21C510 21 457 134 464 252ZM464 285C461 392 523 493 645 493C761 493 819 393 819 285Z"  horiz-adv-x="889" vert-adv-y="1000"  />

      
      <glyph glyph-name="unidf" unicode="&#xdf;" d="M207 379C330 379 425 346 425 214C425 48 303 33 245 33L207 33L207 0L262 0C323 0 463 20 463 214C463 317 412 389 309 401L309 403C391 421 428 478 428 560C428 672 345 726 240 726C117 726 58 658 58 537L58 0L96 0L96 537C96 633 139 693 240 693C322 693 390 648 390 560C390 454 303 412 207 412Z"  horiz-adv-x="500" vert-adv-y="1000"  />

      
      <glyph glyph-name="unif7" unicode="&#xf7;" d="M552 233L552 271L48 271L48 233ZM250 452C250 424 273 401 301 401C329 401 353 424 353 452C353 481 329 504 301 504C273 504 250 481 250 452ZM250 51C250 23 273 0 301 0C329 0 353 23 353 51C353 80 329 103 301 103C273 103 250 80 250 51Z"  horiz-adv-x="600" vert-adv-y="1000"  />

      
      <glyph glyph-name="unibe" unicode="&#xbe;" d="M33 415C29 317 90 266 199 266C282 266 352 306 352 391C352 446 315 490 254 496L254 498C307 505 342 544 342 593C342 672 271 702 199 702C100 702 45 646 44 559L76 559C79 626 117 675 194 675C246 675 310 649 310 593C310 523 235 505 170 508L170 481C244 486 320 465 320 391C320 329 258 293 194 293C113 293 62 340 65 415ZM198-24L238-24L703 714L663 714ZM656 414L456 131L456 104L671 104L671 0L703 0L703 104L774 104L774 131L703 131L703 414ZM671 131L492 131L669 381L671 381Z"  horiz-adv-x="834" vert-adv-y="1000"  />

      
      <glyph glyph-name="unibc" unicode="&#xbc;" d="M151-24L191-24L656 714L616 714ZM243 693L214 693C187 655 143 627 94 620L94 593C142 597 180 614 211 646L211 275L243 275ZM626 414L426 131L426 104L641 104L641 0L673 0L673 104L744 104L744 131L673 131L673 414ZM641 131L462 131L639 381L641 381Z"  horiz-adv-x="834" vert-adv-y="1000"  />

      
      <glyph glyph-name="unib9" unicode="&#xb9;" d="M208 693L179 693C152 655 108 627 59 620L59 593C107 597 145 614 176 646L176 275L208 275Z"  horiz-adv-x="333" vert-adv-y="1000"  />

      
      <glyph glyph-name="unid7" unicode="&#xd7;" d="M79 58L105 31L300 226L494 31L521 58L327 252L521 447L494 474L300 279L105 474L79 447L273 252Z"  horiz-adv-x="600" vert-adv-y="1000"  />

      
      <glyph glyph-name="uniae" unicode="&#xae;" d="M264 136L302 136L302 340L417 340L550 136L592 136L460 339C523 349 574 384 574 456C574 536 530 578 430 578L264 578ZM302 545L424 545C477 545 536 525 536 457C536 380 463 373 396 373L302 373ZM401 698C593 698 736 549 736 358C736 169 592 16 401 16C210 16 64 168 64 357C64 550 208 698 401 698ZM400 731C193 731 26 564 26 357C26 150 193-17 400-17C607-17 774 150 774 357C774 564 607 731 400 731Z"  horiz-adv-x="800" vert-adv-y="1000"  />

      
      <glyph glyph-name="unide" unicode="&#xde;" d="M63 0L107 0L107 198L351 198C493 198 575 269 575 395C575 566 448 594 367 594L107 594L107 714L63 714ZM107 556L364 556C507 556 531 449 531 396C531 321 487 236 358 236L107 236Z"  horiz-adv-x="593" vert-adv-y="1000"  />

      
      <glyph glyph-name="unia6" unicode="&#xa6;" d="M92-17L130-17L130 253L92 253ZM92 461L130 461L130 731L92 731Z"  horiz-adv-x="222" vert-adv-y="1000"  />

      
      <glyph glyph-name="unid0" unicode="&#xd0;" d="M63 396L-5 396L-5 363L63 363L63 0L295 0C524 0 627 156 627 358C627 539 552 714 297 714L63 714ZM107 396L107 676L290 676C396 676 583 650 583 358C583 111 432 38 299 38L107 38L107 363L371 363L371 396Z"  horiz-adv-x="667" vert-adv-y="1000"  />

      
      <glyph glyph-name="unibd" unicode="&#xbd;" d="M121-24L161-24L626 714L586 714ZM213 693L184 693C157 655 113 627 64 620L64 593C112 597 150 614 181 646L181 275L213 275ZM517 27C535 88 590 115 654 155C718 196 780 242 780 309C780 390 717 427 637 427C532 427 497 366 491 276L523 276C527 352 558 400 637 400C715 400 748 354 748 310C748 245 683 207 618 167C553 127 486 82 483 0L783 0L783 27Z"  horiz-adv-x="834" vert-adv-y="1000"  />

      
      <glyph glyph-name="uni2212" unicode="&#x2212;" d="M552 233L552 271L48 271L48 233Z"  horiz-adv-x="600" vert-adv-y="1000"  />

      
      <glyph glyph-name="unie7" unicode="&#xe7;" d="M448 181C435 87 365 21 269 21C136 21 71 123 71 262C71 379 140 493 269 493C362 493 436 446 443 355L481 355C470 472 380 526 269 526C117 526 33 405 33 262C33 124 97-2 251-11L203-75L219-88C234-81 251-76 272-76C290-76 321-90 321-122C321-158 287-169 258-169C224-169 200-159 178-151L167-175C184-184 215-196 257-196C317-196 359-175 359-122C359-71 322-49 284-49C268-49 256-54 247-58L245-56L284-11C389-5 470 64 486 181Z"  horiz-adv-x="519" vert-adv-y="1000"  />

      
      <glyph glyph-name="unif0" unicode="&#xf0;" d="M269 473C400 473 466 365 466 249C466 129 406 21 269 21C134 21 70 131 70 249C70 365 139 473 269 473ZM146 582L167 560L279 622C346 569 405 502 434 434L432 432C384 490 329 506 269 506C117 506 32 388 32 249C32 103 108-12 269-12C426-12 504 105 504 249C504 414 439 540 313 641L422 702L402 724L287 660C256 685 218 710 179 731L151 707C184 691 221 667 254 642Z"  horiz-adv-x="537" vert-adv-y="1000"  />

      
      <glyph glyph-name="unib1" unicode="&#xb1;" d="M281 315L48 315L48 277L281 277L281 88L319 88L319 277L552 277L552 315L319 315L319 504L281 504ZM48 0L552 0L552 38L48 38Z"  horiz-adv-x="600" vert-adv-y="1000"  />

      
      <glyph glyph-name="unic7" unicode="&#xc7;" d="M631 278C623 145 515 21 376 21C189 21 80 174 80 357C80 540 189 693 376 693C495 693 600 621 619 501L663 501C662 511 629 731 376 731C162 731 36 566 36 357C36 160 148 2 340-15L295-75L311-88C326-81 343-76 364-76C382-76 413-90 413-122C413-158 379-169 350-169C316-169 292-159 270-151L259-175C276-184 307-196 349-196C409-196 451-175 451-122C451-71 414-49 376-49C360-49 348-54 339-58L337-56L371-17L376-17C533-17 659 108 675 278Z"  horiz-adv-x="704" vert-adv-y="1000"  />

      
      <glyph glyph-name="unife" unicode="&#xfe;" d="M292 21C147 21 104 134 104 256C104 378 155 493 292 493C430 493 485 373 485 256C485 129 426 21 292 21ZM65-184L103-184L103 107L105 107C135 24 207-12 292-12C449-12 523 100 523 256C523 401 450 526 292 526C179 526 121 447 105 396L103 396L103 714L65 714Z"  horiz-adv-x="556" vert-adv-y="1000"  />

      
      <glyph glyph-name="unia9" unicode="&#xa9;" d="M401 698C593 698 736 549 736 358C736 169 592 16 401 16C210 16 64 168 64 358C64 550 208 698 401 698ZM599 438C586 538 505 593 408 593C270 593 185 495 185 358C185 223 274 120 411 120C507 120 587 184 599 281L561 281C542 206 492 153 411 153C295 153 223 246 223 359C223 475 291 560 409 560C486 560 546 514 561 438ZM400 731C193 731 26 564 26 357C26 150 193-17 400-17C607-17 774 150 774 357C774 564 607 731 400 731Z"  horiz-adv-x="800" vert-adv-y="1000"  />

      
      <glyph glyph-name="uniac" unicode="&#xac;" d="M514 108L552 108L552 369L48 369L48 331L514 331Z"  horiz-adv-x="600" vert-adv-y="1000"  />

      
      <glyph glyph-name="unib2" unicode="&#xb2;" d="M48 302C68 363 123 390 187 430C251 471 313 517 313 584C313 665 250 702 170 702C65 702 30 641 24 551L56 551C60 627 91 675 170 675C248 675 281 629 281 585C281 520 216 482 151 442C86 402 19 357 16 275L316 275L316 302Z"  horiz-adv-x="333" vert-adv-y="1000"  />

      
      <glyph glyph-name="unib3" unicode="&#xb3;" d="M18 415C14 317 75 266 184 266C267 266 337 306 337 391C337 446 300 490 239 496L239 498C292 505 327 544 327 593C327 672 256 702 184 702C85 702 30 646 29 559L61 559C64 626 102 675 179 675C231 675 295 649 295 593C295 523 220 505 155 508L155 481C229 486 305 465 305 391C305 329 243 293 179 293C98 293 47 340 50 415Z"  horiz-adv-x="333" vert-adv-y="1000"  />

      
      <glyph glyph-name="uni2122" unicode="&#x2122;" d="M404 714L85 714L85 681L229 681L229 302L261 302L261 681L404 681ZM542 714L483 714L483 302L515 302L515 681L518 681L685 302L703 302L870 681L873 681L873 302L905 302L905 714L846 714L694 368Z"  horiz-adv-x="990" vert-adv-y="1000"  />

      
      <glyph glyph-name="unib0" unicode="&#xb0;" d="M200 669C260 669 305 619 305 559C305 499 260 449 200 449C140 449 95 499 95 559C95 619 140 669 200 669ZM200 416C280 416 343 479 343 559C343 639 280 702 200 702C120 702 57 639 57 559C57 479 120 416 200 416Z"  horiz-adv-x="400" vert-adv-y="1000"  />

      
      <glyph glyph-name="unib5" unicode="&#xb5;" d="M463 514L425 514L425 236C425 110 355 21 240 21C100 21 94 136 94 189L94 514L56 514L56-184L94-184L94 44L96 44C129 1 185-12 239-12C319-12 397 33 423 110L425 110L425 0L463 0Z"  horiz-adv-x="519" vert-adv-y="1000"  />

      
      <glyph glyph-name="unic1" unicode="&#xc1;" d="M275 714L-12 0L35 0L126 229L468 229L558 0L605 0L323 714ZM140 267L299 671L301 671L454 267ZM239 764L276 764L410 904L359 904Z"  horiz-adv-x="593" vert-adv-y="1000"  />

      
      <glyph glyph-name="unic2" unicode="&#xc2;" d="M275 714L-12 0L35 0L126 229L468 229L558 0L605 0L323 714ZM140 267L299 671L301 671L454 267ZM276 904L161 764L199 764L296 879L394 764L432 764L316 904Z"  horiz-adv-x="593" vert-adv-y="1000"  />

      
      <glyph glyph-name="unic4" unicode="&#xc4;" d="M275 714L-12 0L35 0L126 229L468 229L558 0L605 0L323 714ZM140 267L299 671L301 671L454 267ZM239 767L239 870L195 870L195 767ZM397 767L397 870L353 870L353 767Z"  horiz-adv-x="593" vert-adv-y="1000"  />

      
      <glyph glyph-name="unic0" unicode="&#xc0;" d="M275 714L-12 0L35 0L126 229L468 229L558 0L605 0L323 714ZM140 267L299 671L301 671L454 267ZM354 764L234 904L183 904L317 764Z"  horiz-adv-x="593" vert-adv-y="1000"  />

      
      <glyph glyph-name="unic5" unicode="&#xc5;" d="M275 714L-12 0L35 0L126 229L468 229L558 0L605 0L323 714ZM140 267L299 671L301 671L454 267ZM198 828C198 773 242 729 297 729C352 729 396 773 396 828C396 883 352 927 297 927C242 927 198 883 198 828ZM225 828C225 868 257 900 297 900C337 900 369 868 369 828C369 788 337 756 297 756C257 756 225 788 225 828Z"  horiz-adv-x="593" vert-adv-y="1000"  />

      
      <glyph glyph-name="unic3" unicode="&#xc3;" d="M275 714L-12 0L35 0L126 229L468 229L558 0L605 0L323 714ZM140 267L299 671L301 671L454 267ZM181 775C185 801 198 832 226 832C250 832 273 818 296 804C317 791 341 775 365 775C391 775 408 788 420 804C432 820 438 842 441 865L412 865C409 839 395 808 367 808C346 808 323 825 299 838C275 851 252 865 229 865C182 865 156 819 152 775Z"  horiz-adv-x="593" vert-adv-y="1000"  />

      
      <glyph glyph-name="unic9" unicode="&#xc9;" d="M107 38L107 352L517 352L517 390L107 390L107 676L543 676L543 714L63 714L63 0L548 0L548 38ZM223 764L260 764L394 904L343 904Z"  horiz-adv-x="560" vert-adv-y="1000"  />

      
      <glyph glyph-name="unica" unicode="&#xca;" d="M107 38L107 352L517 352L517 390L107 390L107 676L543 676L543 714L63 714L63 0L548 0L548 38ZM260 904L145 764L183 764L280 879L378 764L416 764L300 904Z"  horiz-adv-x="560" vert-adv-y="1000"  />

      
      <glyph glyph-name="unicb" unicode="&#xcb;" d="M107 38L107 352L517 352L517 390L107 390L107 676L543 676L543 714L63 714L63 0L548 0L548 38ZM233 767L233 870L189 870L189 767ZM391 767L391 870L347 870L347 767Z"  horiz-adv-x="560" vert-adv-y="1000"  />

      
      <glyph glyph-name="unic8" unicode="&#xc8;" d="M107 38L107 352L517 352L517 390L107 390L107 676L543 676L543 714L63 714L63 0L548 0L548 38ZM338 764L218 904L167 904L301 764Z"  horiz-adv-x="560" vert-adv-y="1000"  />

      
      <glyph glyph-name="unicd" unicode="&#xcd;" d="M63 0L107 0L107 714L63 714ZM28 764L65 764L199 904L148 904Z"  horiz-adv-x="170" vert-adv-y="1000"  />

      
      <glyph glyph-name="unice" unicode="&#xce;" d="M63 0L107 0L107 714L63 714ZM65 904L-50 764L-12 764L85 879L183 764L221 764L105 904Z"  horiz-adv-x="170" vert-adv-y="1000"  />

      
      <glyph glyph-name="unicf" unicode="&#xcf;" d="M63 0L107 0L107 714L63 714ZM28 767L28 870L-16 870L-16 767ZM186 767L186 870L142 870L142 767Z"  horiz-adv-x="170" vert-adv-y="1000"  />

      
      <glyph glyph-name="unicc" unicode="&#xcc;" d="M63 0L107 0L107 714L63 714ZM143 764L23 904L-28 904L106 764Z"  horiz-adv-x="170" vert-adv-y="1000"  />

      
      <glyph glyph-name="unid1" unicode="&#xd1;" d="M63 0L107 0L107 660L109 660L563 0L615 0L615 714L571 714L571 59L569 59L118 714L63 714ZM224 775C228 801 241 832 269 832C293 832 316 818 339 804C360 791 384 775 408 775C434 775 451 788 463 804C475 820 481 842 484 865L455 865C452 839 438 808 410 808C389 808 366 825 342 838C318 851 295 865 272 865C225 865 199 819 195 775Z"  horiz-adv-x="678" vert-adv-y="1000"  />

      
      <glyph glyph-name="unid3" unicode="&#xd3;" d="M710 357C710 566 584 731 371 731C157 731 31 566 31 357C31 148 157-17 371-17C584-17 710 148 710 357ZM75 357C75 540 184 693 371 693C557 693 666 540 666 357C666 174 557 21 371 21C184 21 75 174 75 357ZM313 764L350 764L484 904L433 904Z"  horiz-adv-x="741" vert-adv-y="1000"  />

      
      <glyph glyph-name="unid4" unicode="&#xd4;" d="M710 357C710 566 584 731 371 731C157 731 31 566 31 357C31 148 157-17 371-17C584-17 710 148 710 357ZM75 357C75 540 184 693 371 693C557 693 666 540 666 357C666 174 557 21 371 21C184 21 75 174 75 357ZM350 904L235 764L273 764L370 879L468 764L506 764L390 904Z"  horiz-adv-x="741" vert-adv-y="1000"  />

      
      <glyph glyph-name="unid6" unicode="&#xd6;" d="M710 357C710 566 584 731 371 731C157 731 31 566 31 357C31 148 157-17 371-17C584-17 710 148 710 357ZM75 357C75 540 184 693 371 693C557 693 666 540 666 357C666 174 557 21 371 21C184 21 75 174 75 357ZM313 767L313 870L269 870L269 767ZM471 767L471 870L427 870L427 767Z"  horiz-adv-x="741" vert-adv-y="1000"  />

      
      <glyph glyph-name="unid2" unicode="&#xd2;" d="M710 357C710 566 584 731 371 731C157 731 31 566 31 357C31 148 157-17 371-17C584-17 710 148 710 357ZM75 357C75 540 184 693 371 693C557 693 666 540 666 357C666 174 557 21 371 21C184 21 75 174 75 357ZM428 764L308 904L257 904L391 764Z"  horiz-adv-x="741" vert-adv-y="1000"  />

      
      <glyph glyph-name="unid5" unicode="&#xd5;" d="M710 357C710 566 584 731 371 731C157 731 31 566 31 357C31 148 157-17 371-17C584-17 710 148 710 357ZM75 357C75 540 184 693 371 693C557 693 666 540 666 357C666 174 557 21 371 21C184 21 75 174 75 357ZM255 775C259 801 272 832 300 832C324 832 347 818 370 804C391 791 415 775 439 775C465 775 482 788 494 804C506 820 512 842 515 865L486 865C483 839 469 808 441 808C420 808 397 825 373 838C349 851 326 865 303 865C256 865 230 819 226 775Z"  horiz-adv-x="741" vert-adv-y="1000"  />

      
      <glyph glyph-name="uni0160" unicode="&#x0160;" d="M573 510C566 667 449 731 300 731C187 731 60 678 60 541C60 405 182 376 303 351C425 326 547 305 547 184C547 60 426 21 340 21C199 21 74 80 83 236L39 236C37 52 173-17 340-17C449-17 591 36 591 184C591 326 469 357 347 382C226 407 104 426 104 541C104 659 219 693 300 693C432 693 524 632 529 510ZM329 764L445 904L407 904L309 789L212 904L174 904L289 764Z"  horiz-adv-x="630" vert-adv-y="1000"  />

      
      <glyph glyph-name="unida" unicode="&#xda;" d="M63 714L63 286C63 191 77-17 331-17C545-17 609 116 609 286L609 714L565 714L565 286C565 124 506 21 331 21C125 21 107 200 107 286L107 714ZM279 764L316 764L450 904L399 904Z"  horiz-adv-x="672" vert-adv-y="1000"  />

      
      <glyph glyph-name="unidb" unicode="&#xdb;" d="M63 714L63 286C63 191 77-17 331-17C545-17 609 116 609 286L609 714L565 714L565 286C565 124 506 21 331 21C125 21 107 200 107 286L107 714ZM316 904L201 764L239 764L336 879L434 764L472 764L356 904Z"  horiz-adv-x="672" vert-adv-y="1000"  />

      
      <glyph glyph-name="unidc" unicode="&#xdc;" d="M63 714L63 286C63 191 77-17 331-17C545-17 609 116 609 286L609 714L565 714L565 286C565 124 506 21 331 21C125 21 107 200 107 286L107 714ZM279 767L279 870L235 870L235 767ZM437 767L437 870L393 870L393 767Z"  horiz-adv-x="672" vert-adv-y="1000"  />

      
      <glyph glyph-name="unid9" unicode="&#xd9;" d="M63 714L63 286C63 191 77-17 331-17C545-17 609 116 609 286L609 714L565 714L565 286C565 124 506 21 331 21C125 21 107 200 107 286L107 714ZM394 764L274 904L223 904L357 764Z"  horiz-adv-x="672" vert-adv-y="1000"  />

      
      <glyph glyph-name="unidd" unicode="&#xdd;" d="M287 336L29 714L-21 714L264 299L264 0L308 0L308 299L595 714L546 714ZM230 764L267 764L401 904L350 904Z"  horiz-adv-x="574" vert-adv-y="1000"  />

      
      <glyph glyph-name="uni0178" unicode="&#x0178;" d="M287 336L29 714L-21 714L264 299L264 0L308 0L308 299L595 714L546 714ZM230 767L230 870L186 870L186 767ZM388 767L388 870L344 870L344 767Z"  horiz-adv-x="574" vert-adv-y="1000"  />

      
      <glyph glyph-name="uni017D" unicode="&#x017D;" d="M28 676L481 676L-1 38L-1 0L538 0L538 38L45 38L529 676L529 714L28 714ZM282 764L398 904L360 904L262 789L165 904L127 904L242 764Z"  horiz-adv-x="537" vert-adv-y="1000"  />

      
      <glyph glyph-name="unie1" unicode="&#xe1;" d="M397 196C397 169 378 21 205 21C115 21 70 71 70 133C70 210 121 242 211 252C285 262 367 258 397 292ZM435 392C435 498 345 526 255 526C134 526 64 469 59 356L97 356C102 445 163 493 255 493C372 493 398 415 398 392C398 308 391 297 221 285C136 278 32 253 32 133C32 25 107-12 204-12C302-12 371 41 395 102L397 102L397 75C397 33 406 0 466 0C476 0 486 2 497 4L497 36C485 34 476 33 469 33C435 33 435 65 435 95ZM193 591L230 591L364 731L313 731Z"  horiz-adv-x="500" vert-adv-y="1000"  />

      
      <glyph glyph-name="unie2" unicode="&#xe2;" d="M397 196C397 169 378 21 205 21C115 21 70 71 70 133C70 210 121 242 211 252C285 262 367 258 397 292ZM435 392C435 498 345 526 255 526C134 526 64 469 59 356L97 356C102 445 163 493 255 493C372 493 398 415 398 392C398 308 391 297 221 285C136 278 32 253 32 133C32 25 107-12 204-12C302-12 371 41 395 102L397 102L397 75C397 33 406 0 466 0C476 0 486 2 497 4L497 36C485 34 476 33 469 33C435 33 435 65 435 95ZM230 731L115 591L153 591L250 706L348 591L386 591L270 731Z"  horiz-adv-x="500" vert-adv-y="1000"  />

      
      <glyph glyph-name="unie4" unicode="&#xe4;" d="M397 196C397 169 378 21 205 21C115 21 70 71 70 133C70 210 121 242 211 252C285 262 367 258 397 292ZM435 392C435 498 345 526 255 526C134 526 64 469 59 356L97 356C102 445 163 493 255 493C372 493 398 415 398 392C398 308 391 297 221 285C136 278 32 253 32 133C32 25 107-12 204-12C302-12 371 41 395 102L397 102L397 75C397 33 406 0 466 0C476 0 486 2 497 4L497 36C485 34 476 33 469 33C435 33 435 65 435 95ZM193 594L193 697L149 697L149 594ZM351 594L351 697L307 697L307 594Z"  horiz-adv-x="500" vert-adv-y="1000"  />

      
      <glyph glyph-name="unie0" unicode="&#xe0;" d="M397 196C397 169 378 21 205 21C115 21 70 71 70 133C70 210 121 242 211 252C285 262 367 258 397 292ZM435 392C435 498 345 526 255 526C134 526 64 469 59 356L97 356C102 445 163 493 255 493C372 493 398 415 398 392C398 308 391 297 221 285C136 278 32 253 32 133C32 25 107-12 204-12C302-12 371 41 395 102L397 102L397 75C397 33 406 0 466 0C476 0 486 2 497 4L497 36C485 34 476 33 469 33C435 33 435 65 435 95ZM308 591L188 731L137 731L271 591Z"  horiz-adv-x="500" vert-adv-y="1000"  />

      
      <glyph glyph-name="unie5" unicode="&#xe5;" d="M397 196C397 169 378 21 205 21C115 21 70 71 70 133C70 210 121 242 211 252C285 262 367 258 397 292ZM435 392C435 498 345 526 255 526C134 526 64 469 59 356L97 356C102 445 163 493 255 493C372 493 398 415 398 392C398 308 391 297 221 285C136 278 32 253 32 133C32 25 107-12 204-12C302-12 371 41 395 102L397 102L397 75C397 33 406 0 466 0C476 0 486 2 497 4L497 36C485 34 476 33 469 33C435 33 435 65 435 95ZM157 640C157 585 201 541 256 541C311 541 355 585 355 640C355 695 311 739 256 739C201 739 157 695 157 640ZM184 640C184 680 216 712 256 712C296 712 328 680 328 640C328 600 296 568 256 568C216 568 184 600 184 640Z"  horiz-adv-x="500" vert-adv-y="1000"  />

      
      <glyph glyph-name="unie3" unicode="&#xe3;" d="M397 196C397 169 378 21 205 21C115 21 70 71 70 133C70 210 121 242 211 252C285 262 367 258 397 292ZM435 392C435 498 345 526 255 526C134 526 64 469 59 356L97 356C102 445 163 493 255 493C372 493 398 415 398 392C398 308 391 297 221 285C136 278 32 253 32 133C32 25 107-12 204-12C302-12 371 41 395 102L397 102L397 75C397 33 406 0 466 0C476 0 486 2 497 4L497 36C485 34 476 33 469 33C435 33 435 65 435 95ZM135 602C139 628 152 659 180 659C204 659 227 645 250 631C271 618 295 602 319 602C345 602 362 615 374 631C386 647 392 669 395 692L366 692C363 666 349 635 321 635C300 635 277 652 253 665C229 678 206 692 183 692C136 692 110 646 106 602Z"  horiz-adv-x="500" vert-adv-y="1000"  />

      
      <glyph glyph-name="unie9" unicode="&#xe9;" d="M486 252C493 399 421 526 260 526C105 526 31 389 33 248C31 106 110-12 260-12C382-12 462 54 482 174L444 174C426 79 357 21 260 21C133 21 69 131 71 252ZM71 285C79 387 146 493 260 493C378 493 446 393 448 285ZM202 591L239 591L373 731L322 731Z"  horiz-adv-x="519" vert-adv-y="1000"  />

      
      <glyph glyph-name="uniea" unicode="&#xea;" d="M486 252C493 399 421 526 260 526C105 526 31 389 33 248C31 106 110-12 260-12C382-12 462 54 482 174L444 174C426 79 357 21 260 21C133 21 69 131 71 252ZM71 285C79 387 146 493 260 493C378 493 446 393 448 285ZM239 731L124 591L162 591L259 706L357 591L395 591L279 731Z"  horiz-adv-x="519" vert-adv-y="1000"  />

      
      <glyph glyph-name="unieb" unicode="&#xeb;" d="M486 252C493 399 421 526 260 526C105 526 31 389 33 248C31 106 110-12 260-12C382-12 462 54 482 174L444 174C426 79 357 21 260 21C133 21 69 131 71 252ZM71 285C79 387 146 493 260 493C378 493 446 393 448 285ZM202 594L202 697L158 697L158 594ZM360 594L360 697L316 697L316 594Z"  horiz-adv-x="519" vert-adv-y="1000"  />

      
      <glyph glyph-name="unie8" unicode="&#xe8;" d="M486 252C493 399 421 526 260 526C105 526 31 389 33 248C31 106 110-12 260-12C382-12 462 54 482 174L444 174C426 79 357 21 260 21C133 21 69 131 71 252ZM71 285C79 387 146 493 260 493C378 493 446 393 448 285ZM317 591L197 731L146 731L280 591Z"  horiz-adv-x="519" vert-adv-y="1000"  />

      
      <glyph glyph-name="unied" unicode="&#xed;" d="M103 0L103 514L65 514L65 0ZM27 591L64 591L198 731L147 731Z"  horiz-adv-x="168" vert-adv-y="1000"  />

      
      <glyph glyph-name="uniee" unicode="&#xee;" d="M103 0L103 514L65 514L65 0ZM64 731L-51 591L-13 591L84 706L182 591L220 591L104 731Z"  horiz-adv-x="168" vert-adv-y="1000"  />

      
      <glyph glyph-name="unief" unicode="&#xef;" d="M103 0L103 514L65 514L65 0ZM27 594L27 697L-17 697L-17 594ZM185 594L185 697L141 697L141 594Z"  horiz-adv-x="168" vert-adv-y="1000"  />

      
      <glyph glyph-name="uniec" unicode="&#xec;" d="M103 0L103 514L65 514L65 0ZM142 591L22 731L-29 731L105 591Z"  horiz-adv-x="168" vert-adv-y="1000"  />

      
      <glyph glyph-name="unif1" unicode="&#xf1;" d="M56 0L94 0L94 278C94 404 164 493 279 493C419 493 425 378 425 325L425 0L463 0L463 318C463 381 461 526 280 526C200 526 122 481 96 404L94 404L94 514L56 514ZM144 602C148 628 161 659 189 659C213 659 236 645 259 631C280 618 304 602 328 602C354 602 371 615 383 631C395 647 401 669 404 692L375 692C372 666 358 635 330 635C309 635 286 652 262 665C238 678 215 692 192 692C145 692 119 646 115 602Z"  horiz-adv-x="519" vert-adv-y="1000"  />

      
      <glyph glyph-name="unif3" unicode="&#xf3;" d="M32 257C32 111 117-12 268-12C419-12 504 111 504 257C504 403 419 526 268 526C117 526 32 403 32 257ZM70 257C70 380 139 493 268 493C397 493 466 380 466 257C466 134 397 21 268 21C139 21 70 134 70 257ZM211 591L248 591L382 731L331 731Z"  horiz-adv-x="537" vert-adv-y="1000"  />

      
      <glyph glyph-name="unif4" unicode="&#xf4;" d="M32 257C32 111 117-12 268-12C419-12 504 111 504 257C504 403 419 526 268 526C117 526 32 403 32 257ZM70 257C70 380 139 493 268 493C397 493 466 380 466 257C466 134 397 21 268 21C139 21 70 134 70 257ZM248 731L133 591L171 591L268 706L366 591L404 591L288 731Z"  horiz-adv-x="537" vert-adv-y="1000"  />

      
      <glyph glyph-name="unif6" unicode="&#xf6;" d="M32 257C32 111 117-12 268-12C419-12 504 111 504 257C504 403 419 526 268 526C117 526 32 403 32 257ZM70 257C70 380 139 493 268 493C397 493 466 380 466 257C466 134 397 21 268 21C139 21 70 134 70 257ZM211 594L211 697L167 697L167 594ZM369 594L369 697L325 697L325 594Z"  horiz-adv-x="537" vert-adv-y="1000"  />

      
      <glyph glyph-name="unif2" unicode="&#xf2;" d="M32 257C32 111 117-12 268-12C419-12 504 111 504 257C504 403 419 526 268 526C117 526 32 403 32 257ZM70 257C70 380 139 493 268 493C397 493 466 380 466 257C466 134 397 21 268 21C139 21 70 134 70 257ZM326 591L206 731L155 731L289 591Z"  horiz-adv-x="537" vert-adv-y="1000"  />

      
      <glyph glyph-name="unif5" unicode="&#xf5;" d="M32 257C32 111 117-12 268-12C419-12 504 111 504 257C504 403 419 526 268 526C117 526 32 403 32 257ZM70 257C70 380 139 493 268 493C397 493 466 380 466 257C466 134 397 21 268 21C139 21 70 134 70 257ZM153 602C157 628 170 659 198 659C222 659 245 645 268 631C289 618 313 602 337 602C363 602 380 615 392 631C404 647 410 669 413 692L384 692C381 666 367 635 339 635C318 635 295 652 271 665C247 678 224 692 201 692C154 692 128 646 124 602Z"  horiz-adv-x="537" vert-adv-y="1000"  />

      
      <glyph glyph-name="uni0161" unicode="&#x0161;" d="M36 171C39 51 127-12 244-12C334-12 445 19 445 130C445 238 365 262 263 281C180 299 92 312 92 394C92 467 170 493 240 493C326 493 391 455 392 362L430 362C430 479 349 526 240 526C153 526 54 496 54 394C54 289 142 266 231 248C319 230 407 217 407 130C407 41 311 21 244 21C151 21 80 76 74 171ZM254 591L370 731L332 731L234 616L137 731L99 731L214 591Z"  horiz-adv-x="481" vert-adv-y="1000"  />

      
      <glyph glyph-name="unifa" unicode="&#xfa;" d="M463 514L425 514L425 236C425 110 355 21 240 21C100 21 94 136 94 189L94 514L56 514L56 196C56 133 58-12 239-12C319-12 397 33 423 110L425 110L425 0L463 0ZM202 591L239 591L373 731L322 731Z"  horiz-adv-x="519" vert-adv-y="1000"  />

      
      <glyph glyph-name="unifb" unicode="&#xfb;" d="M463 514L425 514L425 236C425 110 355 21 240 21C100 21 94 136 94 189L94 514L56 514L56 196C56 133 58-12 239-12C319-12 397 33 423 110L425 110L425 0L463 0ZM239 731L124 591L162 591L259 706L357 591L395 591L279 731Z"  horiz-adv-x="519" vert-adv-y="1000"  />

      
      <glyph glyph-name="unifc" unicode="&#xfc;" d="M463 514L425 514L425 236C425 110 355 21 240 21C100 21 94 136 94 189L94 514L56 514L56 196C56 133 58-12 239-12C319-12 397 33 423 110L425 110L425 0L463 0ZM202 594L202 697L158 697L158 594ZM360 594L360 697L316 697L316 594Z"  horiz-adv-x="519" vert-adv-y="1000"  />

      
      <glyph glyph-name="unif9" unicode="&#xf9;" d="M463 514L425 514L425 236C425 110 355 21 240 21C100 21 94 136 94 189L94 514L56 514L56 196C56 133 58-12 239-12C319-12 397 33 423 110L425 110L425 0L463 0ZM317 591L197 731L146 731L280 591Z"  horiz-adv-x="519" vert-adv-y="1000"  />

      
      <glyph glyph-name="unifd" unicode="&#xfd;" d="M209 3C185-65 171-103 156-118C130-144 103-151 49-151L49-184C107-184 142-182 169-161C191-144 208-105 229-55L449 514L406 514L230 45L39 514L-6 514ZM165 591L202 591L336 731L285 731Z"  horiz-adv-x="444" vert-adv-y="1000"  />

      
      <glyph glyph-name="uniff" unicode="&#xff;" d="M209 3C185-65 171-103 156-118C130-144 103-151 49-151L49-184C107-184 142-182 169-161C191-144 208-105 229-55L449 514L406 514L230 45L39 514L-6 514ZM165 594L165 697L121 697L121 594ZM323 594L323 697L279 697L279 594Z"  horiz-adv-x="444" vert-adv-y="1000"  />

      
      <glyph glyph-name="uni017E" unicode="&#x017E;" d="M55 33L401 478L401 514L36 514L36 481L354 481L9 36L9 0L417 0L417 33ZM227 591L343 731L305 731L207 616L110 731L72 731L187 591Z"  horiz-adv-x="426" vert-adv-y="1000"  />

      

  </font>
</defs>
</svg>
